<?xml version="1.0" encoding="UTF-8"?>
<svg version="1.1" xmlns="http://www.w3.org/2000/svg" width="500" height="500">
<path d="M0 0 C165 0 330 0 500 0 C500 165 500 330 500 500 C335 500 170 500 0 500 C0 335 0 170 0 0 Z " fill="#FCFCFC" transform="translate(0,0)"/>
<path d="M0 0 C1.2014415 -0.00014603 2.402883 -0.00029205 3.64073181 -0.0004425 C6.89406743 0.00012947 10.14735845 0.00509966 13.40068531 0.01213145 C16.8159293 0.01843796 20.23117442 0.01897451 23.64642334 0.02015686 C30.0952796 0.02324886 36.54411864 0.03143316 42.99296737 0.04150635 C50.34255928 0.05273413 57.69215206 0.05819464 65.04175043 0.06320179 C80.14340306 0.07361785 95.24503964 0.09117548 110.34667969 0.11352539 C110.41710679 19.30838617 110.46983154 38.50322033 110.5021162 57.69818401 C110.51751236 66.61296118 110.53846112 75.52765755 110.57299805 84.44238281 C110.60312467 92.22249707 110.6223072 100.00255275 110.62894517 107.78272372 C110.63281853 111.8931583 110.64176522 116.00342546 110.66386986 120.11380577 C110.88168972 162.25986228 110.88168972 162.25986228 104.59667969 181.36352539 C104.33991455 182.17595703 104.08314941 182.98838867 103.81860352 183.82543945 C95.9008648 208.27636911 83.68193678 230.13986117 65.75878906 248.65014648 C64.35052852 250.10953681 62.96568426 251.58876865 61.58105469 253.07055664 C35.9151305 280.09758616 1.90424771 296.07887565 -35.17700195 299.23413086 C-36.16042352 299.31792936 -37.14384508 299.40172787 -38.1570673 299.48806572 C-50.23092865 300.42604344 -62.2971141 300.36354215 -74.39941406 300.30883789 C-76.87760808 300.30509548 -79.3558036 300.30225434 -81.83399963 300.30026245 C-88.2732267 300.29272255 -94.71235971 300.27316011 -101.15155029 300.25085449 C-107.75564299 300.23018505 -114.35975128 300.22121619 -120.96386719 300.21118164 C-133.86039107 300.18990251 -146.75685063 300.15628624 -159.65332031 300.11352539 C-159.72364025 278.78071052 -159.77642049 257.44791497 -159.80875683 236.1150074 C-159.82417534 226.20806104 -159.84516804 216.30118702 -159.87963867 206.39428711 C-159.90969558 197.75172049 -159.92893169 189.1092063 -159.9355858 180.46658885 C-159.93947067 175.89738967 -159.94849392 171.32834038 -159.97051048 166.75918961 C-159.99113415 162.4434393 -159.99710288 158.12789818 -159.99264336 153.81210327 C-159.99345716 152.24257132 -159.99926669 150.6730311 -160.01093674 149.10354233 C-160.1192429 133.76270462 -158.16718443 118.85898179 -153.15332031 104.30102539 C-152.81220215 103.29894043 -152.47108398 102.29685547 -152.11962891 101.2644043 C-144.29355806 79.19078198 -131.90765605 60.7515528 -115.65332031 44.11352539 C-115.11312256 43.54996338 -114.5729248 42.98640137 -114.01635742 42.40576172 C-99.0050186 26.99014871 -80.65871968 16.57375788 -60.65332031 9.11352539 C-59.61046875 8.72293945 -58.56761719 8.33235352 -57.49316406 7.92993164 C-39.18465522 1.73060783 -19.21422182 -0.06240342 0 0 Z " fill="#01AFBE" transform="translate(276.6533203125,97.886474609375)"/>
<path d="M0 0 C0.22921156 7.79157611 0.38622561 15.58227573 0.49438477 23.37646484 C0.53949556 26.02458177 0.60080278 28.6724764 0.67895508 31.31982422 C0.78881213 35.13825416 0.83932187 38.95370932 0.87890625 42.7734375 C0.92535782 43.94675629 0.97180939 45.12007507 1.01966858 46.32894897 C1.02333421 52.3706089 0.47216304 56.22837859 -3.5769043 60.84033203 C-4.86307567 62.09500427 -6.15191512 63.34754012 -7.4719944 64.56648636 C-9.16827719 66.15787091 -10.79478687 67.80432367 -12.42008972 69.46810913 C-16.46354958 73.605449 -20.55456455 77.69387211 -24.6484375 81.78125 C-26.1531101 83.28659742 -27.65763433 84.79209316 -29.16201782 86.29772949 C-32.2953566 89.43253368 -35.43047474 92.56554414 -38.56689453 95.69726562 C-42.58860254 99.71324237 -46.60575753 103.73373899 -50.62161827 107.75556183 C-53.71840123 110.85595232 -56.8175544 113.95396469 -59.91743851 117.05125427 C-61.4005639 118.53371272 -62.88294717 120.01691401 -64.36457443 121.50086975 C-66.42732878 123.56615746 -68.49325035 125.62822339 -70.56005859 127.68945312 C-71.17098358 128.30240234 -71.78190857 128.91535156 -72.41134644 129.546875 C-78.65912293 135.76337464 -78.65912293 135.76337464 -83.1875 136.5625 C-87.22491741 135.96681546 -87.92463106 135.51782749 -90.78051758 132.88891602 C-91.48004547 132.25148468 -92.17957336 131.61405334 -92.90029907 130.95730591 C-93.59320038 130.31139496 -94.28610168 129.66548401 -95 129 C-95.91185562 128.16612259 -95.91185562 128.16612259 -96.84213257 127.31539917 C-98.68104724 125.62718882 -100.50481842 123.92406111 -102.32421875 122.21484375 C-103.00361008 121.57667221 -103.6830014 120.93850067 -104.38298035 120.2809906 C-112.16847432 112.93711646 -119.82641575 105.465686 -127.4230957 97.92700195 C-129.03406585 96.33282131 -130.65040983 94.74405517 -132.27172852 93.16040039 C-134.65823253 90.82861634 -137.0278972 88.48083435 -139.39453125 86.12890625 C-140.47720024 85.08024132 -140.47720024 85.08024132 -141.58174133 84.01039124 C-147.038194 78.53068903 -150.42395407 73.0191905 -150.4375 65 C-150.20142239 58.83365292 -148.37634979 54.4688716 -144.09375 50.01953125 C-139.25112095 45.63767474 -135.51712677 42.72174786 -128.8125 42.625 C-127.93207031 42.59664062 -127.05164063 42.56828125 -126.14453125 42.5390625 C-117.91180702 43.74584692 -112.45578822 47.84393341 -106.9375 53.8125 C-105.7284277 55.07210553 -104.5175059 56.32993852 -103.3046875 57.5859375 C-102.73459961 58.18116211 -102.16451172 58.77638672 -101.57714844 59.38964844 C-99.10004185 61.91890464 -96.43576616 64.19700022 -93.73828125 66.484375 C-90.66719453 69.16208657 -87.84874538 72.09021008 -85 75 C-83.66736319 76.33402949 -82.33410556 77.66743934 -81 79 C-80.22285645 78.21238281 -79.44571289 77.42476563 -78.64501953 76.61328125 C-75.76888327 73.70102919 -72.88620196 70.79533221 -70.00146484 67.89160156 C-68.75226298 66.63232287 -67.50485944 65.37125764 -66.25927734 64.10839844 C-64.47178925 62.29673588 -62.67799773 60.49153161 -60.8828125 58.6875 C-60.32441681 58.11878174 -59.76602112 57.55006348 -59.19070435 56.96411133 C-57.83124115 55.6042535 -56.41993393 54.29658827 -55 53 C-54.34 53 -53.68 53 -53 53 C-52.690625 52.1646875 -52.690625 52.1646875 -52.375 51.3125 C-50.82702134 48.70908135 -48.92265493 47.20603811 -46.56640625 45.34375 C-44.5776934 43.63772202 -43.03273165 41.63564156 -41.40234375 39.59375 C-39.20044351 37.09131184 -36.65122697 35.02122796 -34.12109375 32.859375 C-29.76387138 29.03978412 -25.56807788 25.00909978 -22 20.4375 C-19.69831149 17.63231713 -17.12479732 15.45985112 -14.3671875 13.11328125 C-10.96171309 10.0730805 -7.77985439 6.8235232 -4.59350586 3.55615234 C-1.10141152 0 -1.10141152 0 0 0 Z " fill="#FAFCFC" transform="translate(325,180)"/>
<path d="M0 0 C0.20356028 7.81001026 0.34323951 15.61933186 0.43945312 23.43139648 C0.47505383 26.08728989 0.53405911 28.73969858 0.60351562 31.39526367 C0.70104096 35.22098176 0.74603985 39.04435545 0.78125 42.87109375 C0.82254028 44.04957382 0.86383057 45.22805389 0.90637207 46.44224548 C0.90983215 52.85841786 0.27771926 56.4264808 -4.04882812 61.32055664 C-5.33760104 62.57672551 -6.6455809 63.81490728 -8 65 C-8.33 63.68 -8.66 62.36 -9 61 C-7.35 60.34 -5.7 59.68 -4 59 C-4 57.68 -4 56.36 -4 55 C-3.34 55 -2.68 55 -2 55 C-1.67 38.17 -1.34 21.34 -1 4 C-2.32 4.99 -3.64 5.98 -5 7 C-5.66 6.67 -6.32 6.34 -7 6 C-6.02388578 4.99702025 -5.04402202 3.99768827 -4.0625 3 C-3.51722656 2.443125 -2.97195313 1.88625 -2.41015625 1.3125 C-1 0 -1 0 0 0 Z " fill="#D9FCFD" transform="translate(325,180)"/>
<path d="M0 0 C0 0.99 0 1.98 0 3 C-1.33333333 4.33333333 -2.66666667 5.66666667 -4 7 C-4.74276031 8.97080157 -4.74276031 8.97080157 -5 11 C-5.375 13.1875 -5.375 13.1875 -6 15 C-9 16 -9 16 -13 16 C-13.33 16.99 -13.66 17.98 -14 19 C-16.64 18.34 -19.28 17.68 -22 17 C-22 16.67 -22 16.34 -22 16 C-21.01 15.814375 -20.02 15.62875 -19 15.4375 C-11.23776144 13.21524622 -5.46612044 5.61985508 0 0 Z " fill="#0EA9B7" transform="translate(261,300)"/>
<path d="M0 0 C0.66 0.33 1.32 0.66 2 1 C1.01 2.485 1.01 2.485 0 4 C-1.32 4 -2.64 4 -4 4 C-4.061875 4.53625 -4.12375 5.0725 -4.1875 5.625 C-5.38027382 9.11156962 -7.56197166 11.24940393 -10 14 C-10.66 13.67 -11.32 13.34 -12 13 C-13.67540664 13.64438717 -15.34183216 14.31246699 -17 15 C-17.99 15 -18.98 15 -20 15 C-13.83659471 9.19914797 -7.11349619 4.56449339 0 0 Z " fill="#10A8B6" transform="translate(190,119)"/>
<path d="M0 0 C-0.33 1.32 -0.66 2.64 -1 4 C-1.66 4 -2.32 4 -3 4 C-3 4.66 -3 5.32 -3 6 C-4.65 6 -6.3 6 -8 6 C-7.67 4.68 -7.34 3.36 -7 2 C-7.52956299 2.2172876 -8.05912598 2.4345752 -8.60473633 2.65844727 C-11.00345553 3.63628753 -13.40778193 4.59951221 -15.8125 5.5625 C-16.64587891 5.90474609 -17.47925781 6.24699219 -18.33789062 6.59960938 C-19.54155273 7.07817383 -19.54155273 7.07817383 -20.76953125 7.56640625 C-21.50792236 7.86490479 -22.24631348 8.16340332 -23.00708008 8.47094727 C-25 9 -25 9 -28 8 C-5.57575758 -1.85858586 -5.57575758 -1.85858586 0 0 Z " fill="#18A9B5" transform="translate(232,104)"/>
<path d="M0 0 C-5.94 5.94 -11.88 11.88 -18 18 C-18.33 17.01 -18.66 16.02 -19 15 C-18.34 15 -17.68 15 -17 15 C-16.79375 14.0925 -16.5875 13.185 -16.375 12.25 C-14.66746875 8.21401704 -12.79935141 7.05798202 -9 5 C-8.34 5 -7.68 5 -7 5 C-6.67 3.35 -6.34 1.7 -6 0 C-3 -1 -3 -1 0 0 Z " fill="#D9F9FB" transform="translate(272,290)"/>
<path d="M0 0 C0.33 0 0.66 0 1 0 C0.55677807 7.23766805 -0.86114815 13.7298144 -3.0625 20.625 C-3.34416016 21.53378906 -3.62582031 22.44257813 -3.91601562 23.37890625 C-4.60222683 25.58873894 -5.29692992 27.79548541 -6 30 C-6.33 30 -6.66 30 -7 30 C-7.33 26.7 -7.66 23.4 -8 20 C-6.68 19.34 -5.36 18.68 -4 18 C-3.3006486 15.81458448 -3.3006486 15.81458448 -3.25 13.375 C-3.19328125 12.55773437 -3.1365625 11.74046875 -3.078125 10.8984375 C-3.05234375 10.27195312 -3.0265625 9.64546875 -3 9 C-2.34 9 -1.68 9 -1 9 C-0.67 6.03 -0.34 3.06 0 0 Z " fill="#18A7B4" transform="translate(384,259)"/>
<path d="M0 0 C1.37768516 4.42140818 0.97979877 8.74098434 0.83984375 13.3203125 C0.7117564 16.15419709 0.7117564 16.15419709 3 18 C3.28875 18.94875 3.5775 19.8975 3.875 20.875 C5.07239974 24.20111038 6.3614409 25.71324878 9 28 C8.67 28.66 8.34 29.32 8 30 C2.1197328 24.84469725 -1.48964232 20.3834504 -2.2421875 12.4453125 C-2.36401535 7.88353629 -2.19408963 4.11391805 0 0 Z " fill="#D3FAFB" transform="translate(177,235)"/>
<path d="M0 0 C2.14677448 0.95789621 4.22468585 1.9641048 6.28125 3.1015625 C2.54284219 4.34769844 1.83783574 3.53231454 -1.71875 2.1015625 C-3.98171407 1.82035008 -6.25505662 1.61451361 -8.53125 1.4765625 C-9.69269531 1.40179688 -10.85414063 1.32703125 -12.05078125 1.25 C-12.93121094 1.20101562 -13.81164062 1.15203125 -14.71875 1.1015625 C-14.71875 2.0915625 -14.71875 3.0815625 -14.71875 4.1015625 C-17.02875 4.4315625 -19.33875 4.7615625 -21.71875 5.1015625 C-15.60849379 -1.44514058 -8.6154686 -2.84706577 0 0 Z " fill="#D6FCFC" transform="translate(204.71875,223.8984375)"/>
<path d="M0 0 C0.33 0.66 0.66 1.32 1 2 C0.67 2.66 0.34 3.32 0 4 C0.99 4.33 1.98 4.66 3 5 C2.278125 5.2475 1.55625 5.495 0.8125 5.75 C-2.84260614 7.37449162 -6.06858778 9.02453966 -7.83984375 12.78125 C-8.07832031 13.4103125 -8.31679687 14.039375 -8.5625 14.6875 C-10 18 -10 18 -12.1875 18.9375 C-13.0846875 18.9684375 -13.0846875 18.9684375 -14 19 C-12.46473873 13.91809087 -9.32630342 10.57522114 -5.875 6.6875 C-5.31167969 6.04232422 -4.74835938 5.39714844 -4.16796875 4.73242188 C-2.78458492 3.14973699 -1.39308955 1.57414859 0 0 Z " fill="#17A6B4" transform="translate(157,146)"/>
<path d="M0 0 C8.1393259 -0.53863186 14.26003762 -0.080992 20.6015625 5.37890625 C21.78357168 6.53780352 22.90024432 7.76277486 24 9 C21 9 21 9 18.6875 7.125 C13.11711548 2.72050992 6.84560715 2.51409698 0 2 C0 1.34 0 0.68 0 0 Z " fill="#22A6AF" transform="translate(192,221)"/>
<path d="M0 0 C0 0.99 0 1.98 0 3 C-1.66666667 4.66666667 -3.33333333 6.33333333 -5 8 C-5.33 8.886875 -5.66 9.77375 -6 10.6875 C-7 13 -7 13 -9.4375 14.3125 C-12 15 -12 15 -15 15 C-10.05 10.05 -5.1 5.1 0 0 Z " fill="#16A4B1" transform="translate(284,277)"/>
<path d="M0 0 C0.99 0.33 1.98 0.66 3 1 C-1.62 5.62 -6.24 10.24 -11 15 C-11.33 14.01 -11.66 13.02 -12 12 C-11.34 12 -10.68 12 -10 12 C-10 11.34 -10 10.68 -10 10 C-9.34 10 -8.68 10 -8 10 C-8 9.34 -8 8.68 -8 8 C-7.34 8 -6.68 8 -6 8 C-6 7.34 -6 6.68 -6 6 C-5.34 6 -4.68 6 -4 6 C-4 5.01 -4 4.02 -4 3 C-2.68 2.67 -1.36 2.34 0 2 C0 1.34 0 0.68 0 0 Z " fill="#CAF7F8" transform="translate(293,265)"/>
<path d="M0 0 C0.79560764 2.91499943 1.25322499 5.74561419 1.5625 8.75 C1.64628906 9.54921875 1.73007813 10.3484375 1.81640625 11.171875 C1.87699219 11.77515625 1.93757813 12.3784375 2 13 C1.01 13.495 1.01 13.495 0 14 C-0.99 13.67 -1.98 13.34 -3 13 C-2.45144652 8.428721 -1.58255197 4.32564205 0 0 Z " fill="#19A9B7" transform="translate(124,201)"/>
<path d="M0 0 C1.32 0.33 2.64 0.66 4 1 C3.48050781 1.37511719 2.96101562 1.75023437 2.42578125 2.13671875 C-1.72252449 5.18085439 -5.47321686 8.25279291 -9 12 C-9 10.68 -9 9.36 -9 8 C-8.34 8 -7.68 8 -7 8 C-7.33 7.01 -7.66 6.02 -8 5 C-7.34 5 -6.68 5 -6 5 C-5.525625 4.505 -5.05125 4.01 -4.5625 3.5 C-3 2 -3 2 0 2 C0 1.34 0 0.68 0 0 Z " fill="#24AAB7" transform="translate(186,223)"/>
<path d="M0 0 C1.32 0.33 2.64 0.66 4 1 C0.37 4.63 -3.26 8.26 -7 12 C-7.33 11.01 -7.66 10.02 -8 9 C-7.34 9 -6.68 9 -6 9 C-5.67 8.01 -5.34 7.02 -5 6 C-4.01 5.67 -3.02 5.34 -2 5 C-2 4.34 -2 3.68 -2 3 C-1.34 3 -0.68 3 0 3 C0 2.01 0 1.02 0 0 Z " fill="#CEF9FA" transform="translate(305,252)"/>
<path d="M0 0 C1.35435364 4.06306092 0.6913193 7.09695547 -1 11 C-3.625 13 -3.625 13 -6 14 C-4.50829734 9.0276578 -2.39542583 4.58154261 0 0 Z " fill="#15A3AE" transform="translate(135,176)"/>
<path d="M0 0 C0 3.57575896 -1.08840607 5.05295935 -3 8 C-5.64 7.34 -8.28 6.68 -11 6 C-11 5.67 -11 5.34 -11 5 C-9.9275 4.731875 -8.855 4.46375 -7.75 4.1875 C-4.43491072 3.13772173 -2.56122354 2.25387672 0 0 Z " fill="#23B0B7" transform="translate(250,311)"/>
<path d="M0 0 C2.64 0.66 5.28 1.32 8 2 C7.67 3.65 7.34 5.3 7 7 C5.83040013 6.02433888 4.66438823 5.044375 3.5 4.0625 C2.8503125 3.51722656 2.200625 2.97195313 1.53125 2.41015625 C1.0259375 1.94480469 0.520625 1.47945313 0 1 C0 0.67 0 0.34 0 0 Z " fill="#CCF3F3" transform="translate(212,291)"/>
<path d="M0 0 C0.66 0.33 1.32 0.66 2 1 C-0.25987714 4.38981571 -1.33531169 4.62574188 -5 6 C-5.66 6.66 -6.32 7.32 -7 8 C-7.66 7.34 -8.32 6.68 -9 6 C-6.03 4.02 -3.06 2.04 0 0 Z " fill="#1EA5B5" transform="translate(190,119)"/>
<path d="M0 0 C0.99 0.33 1.98 0.66 3 1 C2.5205537 5.21912747 1.83374881 7.79663178 -1 11 C-1 9.35 -1 7.7 -1 6 C-0.34 6 0.32 6 1 6 C0.67 4.02 0.34 2.04 0 0 Z " fill="#1CA6B6" transform="translate(374,288)"/>
<path d="M0 0 C0.66 0.33 1.32 0.66 2 1 C-1.96 4.465 -1.96 4.465 -6 8 C-6.66 7.67 -7.32 7.34 -8 7 C-7.38125 6.7525 -6.7625 6.505 -6.125 6.25 C-3.62181694 4.77753937 -3.16954719 3.58971163 -2 1 C-1.34 0.67 -0.68 0.34 0 0 Z " fill="#C7F3F4" transform="translate(276,228)"/>
<path d="M0 0 C0.33 0.99 0.66 1.98 1 3 C-1.31 4.98 -3.62 6.96 -6 9 C-6.66 8.67 -7.32 8.34 -8 8 C-5.36 5.36 -2.72 2.72 0 0 Z " fill="#C9F7F9" transform="translate(267,236)"/>
<path d="M0 0 C2.3125 0.125 2.3125 0.125 5 1 C6.8125 4.0625 6.8125 4.0625 8 7 C4.2047869 5.50902342 2.38957269 3.24299151 0 0 Z " fill="#E3FEFD" transform="translate(230,308)"/>
</svg>
